<?xml version="1.0" encoding="UTF-8"?>
<svg width="512" height="512" viewBox="0 0 512 512" fill="none" xmlns="http://www.w3.org/2000/svg">
  <rect width="512" height="512" rx="100" fill="#0A192F"/>
  <path d="M256 64C150.13 64 64 150.13 64 256C64 340.04 121.44 410.59 199.96 434.67C212.48 437.04 216.96 429.44 216.96 422.72C216.96 416.64 216.8 403.84 216.64 386.88C160.96 399.36 148.48 361.28 148.48 361.28C138.88 337.92 124.8 331.2 124.8 331.2C105.6 318.72 126.4 319.04 126.4 319.04C147.84 320.64 158.72 340.48 158.72 340.48C177.92 371.84 209.92 362.24 217.28 355.84C219.84 342.72 225.28 333.76 231.36 328.96C187.52 324.16 141.44 306.24 141.44 233.6C141.44 210.88 149.12 192.32 159.36 177.92C156.48 172.16 149.76 150.72 161.28 122.88C161.28 122.88 180.48 116.8 216.32 141.44C231.68 136.64 248.32 134.4 264.96 134.24C281.6 134.4 298.24 136.64 313.6 141.44C349.44 116.8 368.64 122.88 368.64 122.88C380.16 150.72 373.44 172.16 370.56 177.92C380.8 192.32 388.48 210.88 388.48 233.6C388.48 306.56 342.24 324 298.24 328.64C305.92 334.4 312.96 345.92 312.96 363.84C312.96 389.76 312.64 414.72 312.64 422.72C312.64 429.44 317.12 437.04 329.92 434.67C408.56 410.59 466 340.04 466 256C466 150.13 379.87 64 274 64H256z" fill="#00FFFF"/>
</svg>
